<svg width="264" height="40" viewBox="0 0 264 40" fill="none" xmlns="http://www.w3.org/2000/svg">
<g clip-path="url(#clip0_1481_824)">
<path d="M38.8002 1.82911C34.1311 -1.08843 27.985 -0.395204 22.5118 3.05128C17.0393 -0.393962 10.8947 -1.08802 6.22634 1.82911C-1.14965 6.43808 -2.04544 18.31 4.22548 28.3456C8.84925 35.7452 16.0781 40.0796 22.5135 39.9989C28.9487 40.0793 36.1773 35.745 40.8011 28.3456C47.072 18.31 46.1762 6.43818 38.8002 1.82911ZM7.61569 26.2271C6.29627 24.1157 5.32259 21.886 4.72164 19.6002C4.15534 17.4465 3.94441 15.3446 4.09472 13.3532C4.37445 9.6458 5.88381 6.75723 8.34482 5.21942C10.8058 3.68161 14.0637 3.5913 17.5185 4.96514C18.0386 5.17194 18.5532 5.41246 19.0628 5.67802C17.2215 7.34659 15.5295 9.3519 14.0904 11.6549C10.2794 17.7539 9.12019 24.5283 10.4489 29.9413C9.40737 28.8174 8.45831 27.5757 7.61569 26.2271ZM40.3048 19.6002C39.7039 21.8861 38.7301 24.1157 37.4108 26.2271C36.5683 27.5755 35.6195 28.8169 34.5783 29.9407C35.767 25.0953 34.9625 19.1592 32.0462 13.5927C31.841 13.2011 31.3673 13.0715 30.9924 13.3057L21.9107 18.9806C21.5629 19.198 21.4572 19.6561 21.6745 20.0039L23.006 22.1348C23.2233 22.4826 23.6814 22.5883 24.0292 22.371L29.9153 18.6929C30.1125 19.2581 30.2895 19.8272 30.4401 20.4003C31.0064 22.5541 31.2173 24.6559 31.067 26.6473C30.7873 30.3547 29.2779 33.2433 26.8169 34.7811C25.5878 35.5491 24.16 35.9559 22.6081 35.9998C22.5743 35.9995 22.54 36.0006 22.5063 35.9999C22.4774 36.0004 22.4481 35.9995 22.4192 35.9998C20.867 35.956 19.4389 35.5491 18.2095 34.781C15.7486 33.2432 14.2392 30.3546 13.9594 26.6472C13.8091 24.6558 14.0201 22.554 14.5864 20.4002C15.1873 18.1143 16.161 15.8848 17.4804 13.7733C18.7998 11.6619 20.377 9.80925 22.168 8.267C23.8555 6.81392 25.6522 5.70295 27.508 4.96503C30.9628 3.5913 34.2207 3.68161 36.6817 5.21932C39.1427 6.75712 40.6521 9.6457 40.9318 13.3531C41.0822 15.3445 40.8711 17.4465 40.3048 19.6002Z" fill="white"/>
<path d="M87.1703 15.1495C91.978 15.1495 95.8371 18.8776 95.8371 23.6198C95.8371 28.3293 91.978 31.992 87.1703 31.992C82.3954 31.992 78.5364 28.3292 78.5364 23.6198C78.5364 18.8776 82.3954 15.1495 87.1703 15.1495ZM87.1703 27.5681C89.4041 27.5681 91.0794 25.7878 91.0794 23.587C91.0794 21.3861 89.4041 19.5736 87.1703 19.5736C84.9694 19.5736 83.2943 21.386 83.2943 23.587C83.2943 25.7879 84.9694 27.5681 87.1703 27.5681ZM118.521 20.0549C118.521 26.8575 113.635 31.5343 106.604 31.5343H97.8185C97.3934 31.5343 97.0992 31.2071 97.0992 30.782V9.36083C97.0992 8.96802 97.3935 8.64112 97.8185 8.64112H106.604C113.635 8.64112 118.521 13.2198 118.521 20.0549ZM113.386 20.055C113.386 16.0652 110.704 13.1544 106.813 13.1544H102.005V27.0211H106.813C110.704 27.0211 113.386 23.9797 113.386 20.055ZM127.443 15.1497C129.569 15.1497 131.27 16.0653 132.022 17.3081V16.327C132.022 15.9347 132.382 15.6073 132.709 15.6073H136.012C136.404 15.6073 136.699 15.9346 136.699 16.327V30.8479C136.699 31.2403 136.404 31.5346 136.012 31.5346H132.709C132.349 31.5346 132.022 31.2403 132.022 30.8479V29.8339C131.27 31.0768 129.536 31.9922 127.41 31.9922C123.29 31.9922 119.463 28.6891 119.463 23.5546C119.463 18.3873 123.323 15.1497 127.443 15.1497ZM128.327 27.6007C130.516 27.6007 132.158 25.9202 132.158 23.5873C132.158 21.2543 130.516 19.5739 128.327 19.5739C126.138 19.5739 124.497 21.2543 124.497 23.5873C124.497 25.9202 126.138 27.6007 128.327 27.6007ZM145.888 15.1496C148.046 15.1496 149.78 16.0654 150.532 17.2427V9.32803C150.532 8.93544 150.859 8.64132 151.251 8.64132H154.555C154.947 8.64132 155.241 8.93544 155.241 9.32803V30.8479C155.241 31.2403 154.947 31.5344 154.555 31.5344H151.251C150.892 31.5344 150.565 31.2403 150.565 30.8479V29.8339C149.681 31.0768 148.079 31.9922 145.953 31.9922C141.832 31.9922 138.006 28.6891 138.006 23.5545C138.006 18.387 141.8 15.1496 145.888 15.1496ZM146.87 27.6425C149.049 27.6425 150.684 25.9445 150.684 23.5871C150.684 21.2296 149.049 19.5317 146.87 19.5317C144.691 19.5317 143.056 21.2298 143.056 23.5871C143.056 25.9443 144.691 27.6425 146.87 27.6425ZM164.431 15.1495C166.589 15.1495 168.323 16.0653 169.075 17.2426V9.32793C169.075 8.93533 169.402 8.64122 169.794 8.64122H173.098C173.49 8.64122 173.785 8.93533 173.785 9.32793V30.8478C173.785 31.2402 173.49 31.5343 173.098 31.5343H169.794C169.435 31.5343 169.108 31.2402 169.108 30.8478V29.8338C168.225 31.0766 166.622 31.9921 164.496 31.9921C160.375 31.9921 156.549 28.689 156.549 23.5544C156.549 18.3869 160.343 15.1495 164.431 15.1495ZM165.413 27.6424C167.593 27.6424 169.227 25.9444 169.227 23.587C169.227 21.2295 167.592 19.5316 165.413 19.5316C163.234 19.5316 161.599 21.2297 161.599 23.587C161.599 25.9442 163.234 27.6424 165.413 27.6424ZM190.557 15.6071H187.261C186.738 15.6071 186.476 15.967 186.379 16.3594L183.336 27.7351L180.079 16.3594C179.891 15.7533 179.595 15.6071 179.17 15.6071H175.696C174.878 15.6071 174.728 16.1633 174.891 16.7192L179.3 30.8476C179.43 31.2401 179.692 31.5341 180.183 31.5341H182.179L181.755 32.9367C181.338 34.1484 180.56 34.4746 179.544 34.4746C178.674 34.4746 178.102 34.1312 177.487 33.7328C177.25 33.5796 177.066 33.5073 176.836 33.5073C176.54 33.5073 176.335 33.6406 176.059 34.0486L175.081 35.5146C174.889 35.8183 174.786 35.9855 174.786 36.3098C174.786 36.8303 175.306 37.1562 175.929 37.5124C177.002 38.1252 178.369 38.4313 179.871 38.4313C183.174 38.4313 185.3 36.6328 186.248 33.6246L191.179 16.7192C191.407 16.0651 191.211 15.6071 190.557 15.6071ZM73.0724 28.4096C71.3411 30.5964 68.3314 31.972 64.9272 31.972C58.5345 31.972 53.5371 27.1637 53.5371 20.3167C53.5371 13.2006 58.931 8.2959 65.7455 8.2959C70.7754 8.2959 74.7982 10.4593 76.5827 14.8098C76.6385 14.9518 76.6654 15.0651 76.6654 15.1726C76.6654 15.3795 76.5298 15.5349 76.096 15.6861L72.9108 16.9126C72.6658 16.9952 72.458 16.9902 72.308 16.9214C72.1445 16.8465 72.0452 16.6955 71.9276 16.4854C70.7944 14.3136 68.7524 12.8366 65.6228 12.8366C61.5623 12.8366 58.6557 16.0084 58.6557 20.1185C58.6557 24.1028 61.134 27.379 65.7381 27.379C68.1617 27.379 70.0944 26.2327 70.9956 24.9824H68.1202C67.6983 24.9824 67.3738 24.658 67.3738 24.236V21.7826C67.3738 21.3607 67.6982 21.0362 68.1202 21.0362H76.5445C76.9664 21.0362 77.2909 21.3282 77.2909 21.75V30.7806C77.2909 31.2024 76.9664 31.527 76.5445 31.527H73.8187C73.3968 31.527 73.0723 31.2025 73.0723 30.7806L73.0724 28.4096Z" fill="white"/>
<path d="M263.921 15.6351C263.902 15.6157 263.877 15.6069 263.849 15.6069H263.091C263.054 15.6069 263.024 15.6139 263.001 15.6281C262.977 15.644 262.957 15.6669 262.945 15.697L262.237 17.2964L261.534 15.697C261.522 15.667 261.503 15.644 261.478 15.6281C261.455 15.614 261.425 15.6069 261.388 15.6069H260.611C260.583 15.6069 260.558 15.6157 260.539 15.6351C260.521 15.6546 260.511 15.6776 260.511 15.7057V18.7031C260.511 18.7331 260.519 18.7561 260.537 18.7755C260.555 18.7932 260.578 18.802 260.606 18.802H261.063C261.09 18.802 261.113 18.7932 261.132 18.7738C261.152 18.7543 261.16 18.7313 261.16 18.7032V16.4401L261.898 18.0854C261.914 18.1224 261.933 18.1471 261.955 18.1631C261.976 18.1773 262.006 18.1843 262.046 18.1843H262.41C262.453 18.1843 262.484 18.1773 262.505 18.1631C262.527 18.1471 262.546 18.1225 262.562 18.0854L263.302 16.4401V18.7032C263.302 18.7332 263.31 18.7562 263.33 18.7756C263.347 18.7933 263.372 18.8021 263.402 18.8021H263.854C263.882 18.8021 263.905 18.7933 263.923 18.7756C263.941 18.7562 263.949 18.7332 263.949 18.7032V15.7058C263.949 15.6776 263.941 15.6545 263.921 15.6351ZM259.817 15.6351C259.799 15.6157 259.774 15.6069 259.744 15.6069H257.22C257.19 15.6069 257.165 15.6157 257.148 15.6351C257.128 15.6563 257.119 15.6811 257.119 15.7111V16.1065C257.119 16.1365 257.128 16.1612 257.148 16.1806C257.165 16.2001 257.19 16.2089 257.22 16.2089H258.143V18.6979C258.143 18.7279 258.152 18.7509 258.172 18.7721C258.193 18.7915 258.216 18.8021 258.242 18.8021H258.717C258.745 18.8021 258.77 18.7915 258.791 18.7721C258.812 18.7509 258.821 18.7279 258.821 18.6979V16.2089H259.744C259.774 16.2089 259.799 16.2001 259.817 16.1806C259.836 16.1612 259.845 16.1365 259.845 16.1065V15.7111C259.845 15.6811 259.836 15.6563 259.817 15.6351ZM228.019 9.6275C227.093 9.13776 226.333 8.37781 225.844 7.45181C225.788 7.34764 225.707 7.26229 225.61 7.20415C225.513 7.14508 225.401 7.11218 225.284 7.11218C225.048 7.11218 224.834 7.24357 224.724 7.45181C224.235 8.37781 223.474 9.13776 222.548 9.6275C222.34 9.73726 222.209 9.95213 222.209 10.1867C222.209 10.4212 222.34 10.637 222.548 10.7467C223.474 11.2365 224.235 11.9964 224.724 12.9224C224.78 13.0266 224.86 13.111 224.957 13.1701C225.054 13.2292 225.166 13.2621 225.284 13.2621C225.519 13.2621 225.733 13.1307 225.844 12.9224C226.333 11.9964 227.093 11.2365 228.019 10.7467C228.228 10.637 228.359 10.4221 228.359 10.1876C228.359 9.95306 228.228 9.73726 228.019 9.6275ZM255.309 19.3952C254.634 18.1427 253.684 17.1435 252.457 16.3985C251.23 15.6563 249.798 15.2849 248.163 15.2849C246.526 15.2849 245.095 15.6563 243.868 16.3985C242.641 17.1435 241.69 18.1426 241.015 19.3952C240.341 20.6486 240.003 22.041 240.003 23.5712C240.003 25.1015 240.341 26.4919 241.015 27.7463C241.69 28.9997 242.641 29.999 243.868 30.7421C245.095 31.4861 246.527 31.8576 248.163 31.8576C249.798 31.8576 251.23 31.4861 252.457 30.7421C253.684 29.999 254.634 28.9998 255.309 27.7463C255.984 26.492 256.321 25.1015 256.321 23.5712C256.321 22.041 255.984 20.6487 255.309 19.3952ZM251.768 25.9805C251.499 26.7198 251.068 27.3118 250.478 27.7566C249.888 28.1994 249.115 28.4217 248.163 28.4217C247.209 28.4217 246.436 28.1994 245.846 27.7566C245.256 27.3118 244.825 26.7199 244.556 25.9805C244.287 25.2412 244.153 24.438 244.153 23.5712C244.153 22.7052 244.287 21.9012 244.556 21.16C244.825 20.4207 245.256 19.8287 245.846 19.3858C246.436 18.941 247.209 18.7206 248.163 18.7206C249.115 18.7206 249.888 18.941 250.478 19.3858C251.068 19.8287 251.499 20.4206 251.768 21.16C252.038 21.9012 252.172 22.7052 252.172 23.5712C252.172 24.4381 252.038 25.2412 251.768 25.9805ZM239.161 15.3552C238.87 15.3073 238.504 15.2867 238.076 15.2867C237.07 15.2867 236.17 15.6038 235.371 16.2493C234.683 16.8001 234.138 17.5572 233.736 18.5094V15.6075H229.883V31.5327H233.705V24.9652C233.705 23.8431 233.89 22.843 234.255 21.9704C234.62 21.097 235.138 20.4036 235.81 19.9008C236.477 19.3932 237.266 19.1389 238.171 19.1389C238.594 19.1389 238.932 19.1652 239.197 19.229C239.462 19.2872 239.69 19.3557 239.87 19.4298V15.5138C239.69 15.4556 239.451 15.4087 239.161 15.3552ZM223.252 15.6076L216.156 20.3625L211.268 8.08411H208.233L199.257 30.6641C198.598 32.3256 199.821 34.1289 201.608 34.1289C201.859 34.1289 202.108 34.0913 202.345 34.0191C202.582 33.9469 202.809 33.8399 203.018 33.7L214.152 26.231L216.077 31.5328H220.605L217.578 23.9324L223.252 20.1261V31.5328H227.202V15.6076H223.252ZM204.562 28.1328L209.709 13.9958L212.83 22.5917L204.562 28.1328Z" fill="white"/>
</g>
<defs>
<clipPath id="clip0_1481_824">
<rect width="263.898" height="40" fill="white" transform="translate(0.0507812)"/>
</clipPath>
</defs>
</svg>
